<?xml version="1.0" encoding="UTF-8"?>
<svg version="1.1" xmlns="http://www.w3.org/2000/svg" width="512" height="512">
<path d="M0 0 C0.97485352 0.19867676 1.94970703 0.39735352 2.95410156 0.60205078 C41.91120441 8.75117837 78.61126621 24.29876737 110 49 C111.4540625 50.13695313 111.4540625 50.13695313 112.9375 51.296875 C128.29459924 63.60000564 142.96676314 77.40590733 155 93 C155.66999023 93.84739746 155.66999023 93.84739746 156.35351562 94.71191406 C168.61790279 110.23740012 178.62883143 127.08873664 187 145 C187.29181152 145.61166016 187.58362305 146.22332031 187.88427734 146.85351562 C203.65739685 180.10258446 210.66507406 216.05027211 210.4375 252.6875 C210.43293793 254.25649048 210.43293793 254.25649048 210.42828369 255.85717773 C210.35812274 272.22307602 209.51942707 287.96435756 206 304 C205.68651611 305.49515137 205.68651611 305.49515137 205.36669922 307.02050781 C193.04654771 364.66220545 159.63562033 420.64249659 111.68896484 455.75097656 C109.98407092 457.01177987 108.31348529 458.30928433 106.64453125 459.6171875 C63.33650264 493.09523271 8.67306575 509.7751635 -45.6875 509.4375 C-47.25649048 509.43293793 -47.25649048 509.43293793 -48.85717773 509.42828369 C-65.21697224 509.35814891 -80.97302762 508.5392563 -97 505 C-98.02335449 504.78037598 -99.04670898 504.56075195 -100.10107422 504.33447266 C-137.13342915 496.21046745 -172.13905803 480.49894325 -202 457 C-202.969375 456.24203125 -203.93875 455.4840625 -204.9375 454.703125 C-220.29459924 442.39999436 -234.96676314 428.59409267 -247 413 C-247.66999023 412.15260254 -247.66999023 412.15260254 -248.35351562 411.28808594 C-260.61790279 395.76259988 -270.62883143 378.91126336 -279 361 C-279.29181152 360.38833984 -279.58362305 359.77667969 -279.88427734 359.14648438 C-288.9395294 340.05839602 -295.07313212 319.72640439 -299 299 C-299.16371094 298.19062988 -299.32742188 297.38125977 -299.49609375 296.54736328 C-304.96569558 268.56085724 -304.84477511 234.90578161 -299 207 C-298.80132324 206.02514648 -298.60264648 205.05029297 -298.39794922 204.04589844 C-291.93015128 173.12643293 -280.97366501 143.71551561 -264 117 C-263.32324219 115.9275 -262.64648438 114.855 -261.94921875 113.75 C-246.95721373 90.67613256 -227.92651111 68.67139688 -206 52 C-204.82501566 51.07355701 -203.65057379 50.14642576 -202.4765625 49.21875 C-187.50628546 37.53839267 -171.1845802 28.03153941 -154 20 C-153.08250977 19.56228271 -153.08250977 19.56228271 -152.14648438 19.11572266 C-133.05839602 10.0604706 -112.72640439 3.92686788 -92 0 C-91.19062988 -0.16371094 -90.38125977 -0.32742188 -89.54736328 -0.49609375 C-61.56085724 -5.96569558 -27.90578161 -5.84477511 0 0 Z " fill="#162F50" transform="translate(302,3)"/>
<path d="M0 0 C0.97485352 0.19867676 1.94970703 0.39735352 2.95410156 0.60205078 C41.91120441 8.75117837 78.61126621 24.29876737 110 49 C111.4540625 50.13695313 111.4540625 50.13695313 112.9375 51.296875 C128.29459924 63.60000564 142.96676314 77.40590733 155 93 C155.66999023 93.84739746 155.66999023 93.84739746 156.35351562 94.71191406 C168.61790279 110.23740012 178.62883143 127.08873664 187 145 C187.29181152 145.61166016 187.58362305 146.22332031 187.88427734 146.85351562 C203.65739685 180.10258446 210.66507406 216.05027211 210.4375 252.6875 C210.43293793 254.25649048 210.43293793 254.25649048 210.42828369 255.85717773 C210.35812274 272.22307602 209.51942707 287.96435756 206 304 C205.68651611 305.49515137 205.68651611 305.49515137 205.36669922 307.02050781 C193.04654771 364.66220545 159.63562033 420.64249659 111.68896484 455.75097656 C109.98407092 457.01177987 108.31348529 458.30928433 106.64453125 459.6171875 C63.33650264 493.09523271 8.67306575 509.7751635 -45.6875 509.4375 C-47.25649048 509.43293793 -47.25649048 509.43293793 -48.85717773 509.42828369 C-65.21697224 509.35814891 -80.97302762 508.5392563 -97 505 C-98.02335449 504.78037598 -99.04670898 504.56075195 -100.10107422 504.33447266 C-137.13342915 496.21046745 -172.13905803 480.49894325 -202 457 C-202.969375 456.24203125 -203.93875 455.4840625 -204.9375 454.703125 C-220.29459924 442.39999436 -234.96676314 428.59409267 -247 413 C-247.66999023 412.15260254 -247.66999023 412.15260254 -248.35351562 411.28808594 C-260.61790279 395.76259988 -270.62883143 378.91126336 -279 361 C-279.29181152 360.38833984 -279.58362305 359.77667969 -279.88427734 359.14648438 C-288.9395294 340.05839602 -295.07313212 319.72640439 -299 299 C-299.16371094 298.19062988 -299.32742188 297.38125977 -299.49609375 296.54736328 C-304.96569558 268.56085724 -304.84477511 234.90578161 -299 207 C-298.80132324 206.02514648 -298.60264648 205.05029297 -298.39794922 204.04589844 C-291.93015128 173.12643293 -280.97366501 143.71551561 -264 117 C-263.32324219 115.9275 -262.64648438 114.855 -261.94921875 113.75 C-246.95721373 90.67613256 -227.92651111 68.67139688 -206 52 C-204.82501566 51.07355701 -203.65057379 50.14642576 -202.4765625 49.21875 C-187.50628546 37.53839267 -171.1845802 28.03153941 -154 20 C-153.08250977 19.56228271 -153.08250977 19.56228271 -152.14648438 19.11572266 C-133.05839602 10.0604706 -112.72640439 3.92686788 -92 0 C-91.19062988 -0.16371094 -90.38125977 -0.32742188 -89.54736328 -0.49609375 C-61.56085724 -5.96569558 -27.90578161 -5.84477511 0 0 Z M-129 30 C-130.10504883 30.36496582 -130.10504883 30.36496582 -131.23242188 30.73730469 C-154.5831758 38.56875432 -176.80933051 50.57324635 -196 66 C-196.97453125 66.77085938 -197.9490625 67.54171875 -198.953125 68.3359375 C-221.48416917 86.53271085 -238.52602629 108.08206095 -253 133 C-253.40057617 133.6815918 -253.80115234 134.36318359 -254.21386719 135.06542969 C-262.014063 148.37013302 -269.3727804 162.23975522 -274 177 C-274.19158691 177.60263672 -274.38317383 178.20527344 -274.58056641 178.82617188 C-288.88556294 224.53972275 -287.64175725 277.66491126 -271.74511719 322.86035156 C-270.88771751 325.32242585 -270.0732489 327.79715549 -269.2578125 330.2734375 C-258.00952979 364.01828564 -242.79163469 392.36361331 -218 418 C-217.36707031 418.67289062 -216.73414063 419.34578125 -216.08203125 420.0390625 C-202.07643073 434.61020984 -184.36117973 445.88766348 -167 456 C-166.39816895 456.35658691 -165.79633789 456.71317383 -165.17626953 457.08056641 C-147.65819307 467.37852422 -127.75485585 475.2522741 -108 480 C-107.13487793 480.20818359 -106.26975586 480.41636719 -105.37841797 480.63085938 C-102.48535999 481.31417212 -99.58823408 481.97506909 -96.6875 482.625 C-95.82350586 482.8194873 -94.95951172 483.01397461 -94.06933594 483.21435547 C-91.05400999 483.86033993 -88.03249964 484.43972891 -85 485 C-84.32522614 485.1278186 -83.65045227 485.25563721 -82.95523071 485.3873291 C-69.37194239 487.89956419 -56.01856143 488.52869751 -42.22045898 488.50097656 C-38.83295109 488.50000586 -35.44772978 488.54177925 -32.06054688 488.5859375 C-17.47219579 488.66434819 -3.95549421 486.95756175 10.24177551 483.63635254 C13.85182306 482.80347511 17.47778999 482.05916131 21.1081543 481.32072449 C39.94989659 477.31719081 58.15203971 469.23668726 75 460 C76.01102783 459.45206787 76.01102783 459.45206787 77.04248047 458.89306641 C88.5162188 452.61317954 98.84925977 445.22931432 109 437 C109.8981543 436.27756104 109.8981543 436.27756104 110.81445312 435.54052734 C132.87244098 417.66659412 150.02080963 396.98471564 165 373 C160.82975564 373 158.31408232 375.16232154 154.9375 377.375 C129.10382112 393.85561372 100.68095238 407.09658361 71 415 C70.26845703 415.1954541 69.53691406 415.3909082 68.78320312 415.59228516 C55.31380915 419.13643954 41.84023938 421.47827074 28 423 C27.16573486 423.09643799 26.33146973 423.19287598 25.47192383 423.29223633 C18.00843917 424.07431091 10.55778823 424.18616546 3.05981445 424.18530273 C0.96479403 424.18747174 -1.12968262 424.20565188 -3.22460938 424.22460938 C-13.59627283 424.26593074 -23.71849719 423.32565216 -34 422 C-32.80963135 421.95512451 -31.6192627 421.91024902 -30.39282227 421.86401367 C72.59417805 418.43042928 72.59417805 418.43042928 158.39794922 366.51171875 C164.96242863 359.30291702 170.19059879 351.45679945 175 343 C175.48339844 342.19304687 175.96679688 341.38609375 176.46484375 340.5546875 C180.73762576 332.89225167 182.33822023 324.52162876 184 316 C184.23895996 314.77522949 184.47791992 313.55045898 184.72412109 312.28857422 C194.46093543 261.8072484 199.24195895 206.16990985 170 161 C167.21116404 157.11520044 164.22618539 153.52744209 161 150 C160.23042969 149.14921875 159.46085937 148.2984375 158.66796875 147.421875 C137.08515845 124.68844638 105.96247123 115.28285264 75.70874023 111.35375977 C73.68174825 111.08903589 71.65928824 110.78919565 69.63989258 110.47167969 C34.8439164 105.96260289 -1.51006342 112.09455162 -35.06738281 120.984375 C-42.00876212 122.80155996 -49.00948239 124.38473829 -56 126 C-50.65163939 124.25737588 -45.30290503 122.51590483 -39.95385742 120.77539062 C-38.14353904 120.18617042 -36.33331393 119.59666355 -34.52319336 119.00683594 C55.53766538 89.66256948 55.53766538 89.66256948 97.04394531 101.45751953 C98.92736061 101.97985463 100.83511982 102.41184839 102.7421875 102.83984375 C113.06219353 105.16774532 122.97622789 108.5857019 132.94921875 112.09057617 C134.63917969 112.67415894 134.63917969 112.67415894 136.36328125 113.26953125 C137.88369019 113.80477417 137.88369019 113.80477417 139.43481445 114.35083008 C142.09256108 115.26876224 142.09256108 115.26876224 145 114 C136.37513496 102.0101308 128.79896565 94.39895564 115 89 C114.14148438 88.59910156 113.28296875 88.19820313 112.3984375 87.78515625 C71.83167362 69.31403524 19.91540069 81.8743171 -19.8203125 95.59375 C-24.15346817 97.07823815 -28.53549953 98.36207117 -32.9375 99.625 C-37.43609674 100.91746763 -41.87587945 102.26362395 -46.25 103.9375 C-52.56531716 106.32892613 -59.06691259 108.07832157 -65.56542969 109.89428711 C-70.08528029 111.15792372 -74.56397403 112.46022239 -79 114 C-79.33 113.01 -79.66 112.02 -80 111 C-78.54207031 110.25169922 -78.54207031 110.25169922 -77.0546875 109.48828125 C-68.54541129 105.07419911 -60.22815601 100.41909214 -52 95.5 C-24.01016191 78.8506852 4.44749307 66.78850602 37.6953125 66.8671875 C38.60521942 66.86623077 39.51512634 66.86527405 40.4526062 66.86428833 C42.37042307 66.86361114 44.28824229 66.86543309 46.20605469 66.86962891 C49.09575749 66.87494619 51.98530221 66.86968747 54.875 66.86328125 C68.31318149 66.85770944 81.51987474 67.49472443 94.875 69.0625 C95.67035156 69.15337891 96.46570313 69.24425781 97.28515625 69.33789062 C99.19040729 69.55596153 101.09525369 69.77756364 103 70 C99.47342043 66.26945781 95.80065135 63.25573207 91.5 60.4375 C90.85329346 60.01331787 90.20658691 59.58913574 89.5402832 59.15209961 C24.91828446 17.35568439 -55.66460809 5.37498653 -129 30 Z " fill="#F9FAFA" transform="translate(302,3)"/>
<path d="M0 0 C2.55867346 0.44785398 5.12172917 0.83538707 7.69091797 1.21777344 C45.67541312 7.24654482 82.33774633 24.97048373 112.53857422 48.44433594 C109.49007117 49.96858746 106.55489671 49.04387713 103.28857422 48.56933594 C88.77911073 46.53342308 74.29325312 46.17059426 59.66357422 46.13183594 C58.7141394 46.12921753 57.76470459 46.12659912 56.78649902 46.12390137 C41.97732254 46.1195338 27.9925526 46.97746923 13.53857422 50.44433594 C12.14933484 50.74810364 10.76001694 51.05151258 9.37060547 51.35449219 C-10.12800002 56.02203402 -27.84655865 65.69940416 -44.84838867 76.05566406 C-49.52344402 78.90194593 -54.25305571 81.63685712 -59.02392578 84.31933594 C-59.6788501 84.68865234 -60.33377441 85.05796875 -61.00854492 85.43847656 C-64.77672364 87.54815156 -68.58203896 89.54349617 -72.46142578 91.44433594 C-77.84515018 80.92859373 -82.83562384 70.31497051 -87.46142578 59.44433594 C-88.92170836 62.3649011 -87.94861869 64.12249454 -87.14892578 67.25683594 C-86.02915169 71.83681285 -85.1447397 76.33380025 -84.52392578 81.00683594 C-82.22970184 96.16316575 -74.94120557 109.1352025 -67.25830078 122.20214844 C-60.90309124 133.66915695 -62.1310962 146.75290391 -62.46142578 159.44433594 C-60.15142578 160.43433594 -57.84142578 161.42433594 -55.46142578 162.44433594 C-55.33642578 164.81933594 -55.33642578 164.81933594 -55.46142578 167.44433594 C-57.46142578 169.44433594 -57.46142578 169.44433594 -60.46142578 169.56933594 C-61.45142578 169.52808594 -62.44142578 169.48683594 -63.46142578 169.44433594 C-64.12142578 169.44433594 -64.78142578 169.44433594 -65.46142578 169.44433594 C-66.80295068 171.03522721 -66.80295068 171.03522721 -68.14892578 173.06933594 C-72.96930319 179.66379897 -78.2955652 184.67602458 -86.46142578 186.44433594 C-95.33238929 187.79962203 -102.09956491 185.42078938 -109.46142578 180.44433594 C-115.9556096 174.8963246 -119.3909937 168.29892965 -122.46142578 160.44433594 C-122.81462891 159.65542969 -123.16783203 158.86652344 -123.53173828 158.05371094 C-124.66310124 154.87828885 -125.06851646 151.7840652 -125.46142578 148.44433594 C-126.22147961 163.7087504 -123.36902982 176.88642087 -113.71142578 189.13183594 C-106.72913298 196.80879563 -98.17434326 200.84549638 -87.91455078 201.76074219 C-77.30160907 202.09645769 -68.04724303 200.71298974 -59.58642578 193.94433594 C-50.25529026 184.73174479 -48.38089242 173.93639995 -47.46142578 161.44433594 C-47.13142578 161.44433594 -46.80142578 161.44433594 -46.46142578 161.44433594 C-45.80398706 175.83920951 -45.68789172 187.39143937 -54.89892578 199.25683594 C-62.10676923 206.77985125 -72.25380445 211.17333398 -82.60571289 211.51513672 C-84.87129238 211.54208166 -87.13335596 211.53207365 -89.39892578 211.50683594 C-90.17816406 211.50232422 -90.95740234 211.4978125 -91.76025391 211.49316406 C-93.66067847 211.48150502 -95.56106284 211.46357471 -97.46142578 211.44433594 C-88.71142177 213.05853873 -80.24354608 212.59608942 -71.46142578 211.44433594 C-71.46142578 212.10433594 -71.46142578 212.76433594 -71.46142578 213.44433594 C-77.13017784 215.37721231 -82.12205626 215.72036955 -88.08642578 215.63183594 C-88.91916016 215.63119141 -89.75189453 215.63054687 -90.60986328 215.62988281 C-94.68336851 215.60069368 -98.48892586 215.45772878 -102.46142578 214.44433594 C-87.87788357 218.38964204 -75.46589982 215.27196519 -61.46142578 210.44433594 C-63.80866516 213.12908686 -66.02614212 214.29150607 -69.33642578 215.56933594 C-70.60099609 216.06820312 -70.60099609 216.06820312 -71.89111328 216.57714844 C-83.73005661 220.57144239 -98.24220173 219.76627555 -109.46142578 214.44433594 C-111.63439638 213.22615545 -113.48997958 211.97768298 -115.46142578 210.44433594 C-114.47142578 210.11433594 -113.48142578 209.78433594 -112.46142578 209.44433594 C-113.73149792 208.48499403 -115.00251497 207.526903 -116.27392578 206.56933594 C-116.98162109 206.03566406 -117.68931641 205.50199219 -118.41845703 204.95214844 C-120.06598875 203.73618812 -121.75766789 202.58017453 -123.46142578 201.44433594 C-122.14142578 203.09433594 -120.82142578 204.74433594 -119.46142578 206.44433594 C-126.6802584 203.46998397 -131.11558085 195.66759232 -134.33642578 188.88183594 C-140.51153828 173.95344949 -140.14931287 157.51415534 -134.46142578 142.44433594 C-129.10734229 130.06246045 -121.46703322 118.58458229 -114.42016602 107.12402344 C-113.37880621 105.62192959 -113.37880621 105.62192959 -113.46142578 104.44433594 C-114.08895752 104.55503418 -114.71648926 104.66573242 -115.36303711 104.77978516 C-118.33221773 105.29957431 -121.30303418 105.80942028 -124.27392578 106.31933594 C-125.7521582 106.58037109 -125.7521582 106.58037109 -127.26025391 106.84667969 C-130.65520113 107.42499877 -134.05355217 107.94759351 -137.46142578 108.44433594 C-138.10205963 108.53794403 -138.74269348 108.63155212 -139.40274048 108.72799683 C-154.01578953 110.77504037 -168.665349 110.78689424 -183.39526367 110.76000977 C-186.14966088 110.75536354 -188.9036181 110.76237068 -191.65795898 110.78051758 C-229.29716518 111.02646624 -229.29716518 111.02646624 -238.46142578 106.44433594 C-236.26318227 100.55094977 -232.97484458 95.6364575 -229.46142578 90.44433594 C-229.08324707 89.8784375 -228.70506836 89.31253906 -228.31542969 88.72949219 C-216.01917064 70.58047197 -199.37756337 54.05198832 -181.46142578 41.44433594 C-180.88440918 41.0336084 -180.30739258 40.62288086 -179.71289062 40.19970703 C-152.36799275 20.85602555 -122.13397237 8.33642652 -89.46142578 1.44433594 C-88.57825684 1.24533691 -87.69508789 1.04633789 -86.78515625 0.84130859 C-59.15819368 -5.25309453 -27.79564089 -4.88749216 0 0 Z " fill="#34A6A0" transform="translate(292.46142578125,23.5556640625)"/>
<path d="M0 0 C0.97485352 0.19867676 1.94970703 0.39735352 2.95410156 0.60205078 C41.91120441 8.75117837 78.61126621 24.29876737 110 49 C111.4540625 50.13695313 111.4540625 50.13695313 112.9375 51.296875 C128.29459924 63.60000564 142.96676314 77.40590733 155 93 C155.66999023 93.84739746 155.66999023 93.84739746 156.35351562 94.71191406 C168.61790279 110.23740012 178.62883143 127.08873664 187 145 C187.29181152 145.61166016 187.58362305 146.22332031 187.88427734 146.85351562 C203.65739685 180.10258446 210.66507406 216.05027211 210.4375 252.6875 C210.43293793 254.25649048 210.43293793 254.25649048 210.42828369 255.85717773 C210.35812274 272.22307602 209.51942707 287.96435756 206 304 C205.68651611 305.49515137 205.68651611 305.49515137 205.36669922 307.02050781 C193.04654771 364.66220545 159.63562033 420.64249659 111.68896484 455.75097656 C109.98407092 457.01177987 108.31348529 458.30928433 106.64453125 459.6171875 C63.33650264 493.09523271 8.67306575 509.7751635 -45.6875 509.4375 C-47.25649048 509.43293793 -47.25649048 509.43293793 -48.85717773 509.42828369 C-65.21697224 509.35814891 -80.97302762 508.5392563 -97 505 C-98.02335449 504.78037598 -99.04670898 504.56075195 -100.10107422 504.33447266 C-137.13342915 496.21046745 -172.13905803 480.49894325 -202 457 C-202.969375 456.24203125 -203.93875 455.4840625 -204.9375 454.703125 C-220.29459924 442.39999436 -234.96676314 428.59409267 -247 413 C-247.66999023 412.15260254 -247.66999023 412.15260254 -248.35351562 411.28808594 C-260.61790279 395.76259988 -270.62883143 378.91126336 -279 361 C-279.29181152 360.38833984 -279.58362305 359.77667969 -279.88427734 359.14648438 C-288.9395294 340.05839602 -295.07313212 319.72640439 -299 299 C-299.16371094 298.19062988 -299.32742188 297.38125977 -299.49609375 296.54736328 C-304.96569558 268.56085724 -304.84477511 234.90578161 -299 207 C-298.80132324 206.02514648 -298.60264648 205.05029297 -298.39794922 204.04589844 C-291.93015128 173.12643293 -280.97366501 143.71551561 -264 117 C-263.32324219 115.9275 -262.64648438 114.855 -261.94921875 113.75 C-246.95721373 90.67613256 -227.92651111 68.67139688 -206 52 C-204.82501566 51.07355701 -203.65057379 50.14642576 -202.4765625 49.21875 C-187.50628546 37.53839267 -171.1845802 28.03153941 -154 20 C-153.08250977 19.56228271 -153.08250977 19.56228271 -152.14648438 19.11572266 C-133.05839602 10.0604706 -112.72640439 3.92686788 -92 0 C-91.19062988 -0.16371094 -90.38125977 -0.32742188 -89.54736328 -0.49609375 C-61.56085724 -5.96569558 -27.90578161 -5.84477511 0 0 Z M-203 57 C-203.57733887 57.46164551 -204.15467773 57.92329102 -204.74951172 58.39892578 C-220.15475345 70.84853616 -234.37429046 84.94606591 -246 101 C-246.48130371 101.65291016 -246.96260742 102.30582031 -247.45849609 102.97851562 C-263.42640822 124.67889283 -276.57278925 148.18826045 -284.37890625 174.0715332 C-284.99851174 175.99537902 -285.71868488 177.85018522 -286.46875 179.7265625 C-306.95810766 233.56352881 -299.65341606 301.26477955 -276.68139648 352.96777344 C-264.05517781 380.66756327 -248.23304945 405.14530592 -227 427 C-226.42137207 427.60440918 -225.84274414 428.20881836 -225.24658203 428.83154297 C-217.24628659 437.172186 -209.03936458 444.81061183 -199.75048828 451.69384766 C-197.99110314 453.00663852 -196.25851821 454.34951419 -194.52734375 455.69921875 C-175.33078085 470.4700687 -152.3060031 483.216093 -129 490 C-127.43522519 490.51395856 -125.87258328 491.03447181 -124.3125 491.5625 C-123.29518799 491.89894531 -123.29518799 491.89894531 -122.25732422 492.2421875 C-120.86569839 492.70937402 -119.4781028 493.18903785 -118.09790039 493.68896484 C-66.47452731 511.99941549 -1.69000843 507.8264523 48 486 C49.38527696 485.40592411 50.7707033 484.8121965 52.15625 484.21875 C73.11668515 475.16307249 92.03373687 464.1283431 110 450 C110.95519531 449.25105469 111.91039062 448.50210937 112.89453125 447.73046875 C128.55201001 434.96731212 143.17083636 420.39410934 155 404 C155.81576618 402.92300533 156.63349877 401.84749747 157.453125 400.7734375 C182.0513124 368.05968611 196.77258232 328.91068233 202.609375 288.66113281 C202.94261581 286.39092979 203.30792715 284.12993874 203.6875 281.8671875 C212.47173341 222.45160874 194.809238 157.49048079 160 109 C159.27296875 107.9790625 158.5459375 106.958125 157.796875 105.90625 C143.23571422 86.00250505 126.00791521 67.48338255 106 53 C104.69910775 52.03139907 103.39833112 51.06264282 102.09765625 50.09375 C85.91611971 38.20433188 68.55939321 28.74828604 50.10058594 20.90039062 C48.32942646 20.14120465 46.57297235 19.34784486 44.8203125 18.546875 C28.76689767 11.36149386 11.24872856 7.92032198 -6 5 C-7.2375 4.78472656 -8.475 4.56945312 -9.75 4.34765625 C-78.15685765 -6.91645372 -149.3082768 13.90513747 -203 57 Z " fill="#1B2945" transform="translate(302,3)"/>
<path d="M0 0 C2.48631853 0.97987328 3.76690738 1.62770389 5.2043457 3.92358398 C5.52491943 4.69001221 5.84549316 5.45644043 6.17578125 6.24609375 C6.52833984 7.08333984 6.88089844 7.92058594 7.24414062 8.78320312 C7.59669922 9.65912109 7.94925781 10.53503906 8.3125 11.4375 C8.68439453 12.30955078 9.05628906 13.18160156 9.43945312 14.08007812 C12.13211764 20.60364709 12.13211764 20.60364709 11 24 C9.87327825 21.60496313 8.74857442 19.2090129 7.625 16.8125 C7.14933594 15.80219727 7.14933594 15.80219727 6.6640625 14.77148438 C4.99988576 11.21777362 3.40908239 7.66503752 2 4 C0.53971742 6.92056516 1.51280709 8.6781586 2.3125 11.8125 C3.43227409 16.39247692 4.31668608 20.88946432 4.9375 25.5625 C7.23172394 40.71882981 14.52022021 53.69086656 22.203125 66.7578125 C28.55833454 78.22482102 27.33032958 91.30856797 27 104 C29.31 104.99 31.62 105.98 34 107 C34.125 109.375 34.125 109.375 34 112 C32 114 32 114 29 114.125 C28.01 114.08375 27.02 114.0425 26 114 C25.34 114 24.68 114 24 114 C22.6584751 115.59089127 22.6584751 115.59089127 21.3125 117.625 C16.4921226 124.21946304 11.16586058 129.23168864 3 131 C-5.87096351 132.35528609 -12.63813913 129.97645344 -20 125 C-26.49418382 119.45198866 -29.92956791 112.85459371 -33 105 C-33.35320312 104.21109375 -33.70640625 103.4221875 -34.0703125 102.609375 C-35.20167546 99.43395291 -35.60709068 96.33972926 -36 93 C-36.76005383 108.26441446 -33.90760404 121.44208493 -24.25 133.6875 C-17.2677072 141.36445969 -8.71291748 145.40116044 1.546875 146.31640625 C12.15981671 146.65212175 21.41418275 145.2686538 29.875 138.5 C39.20613552 129.28740885 41.08053336 118.49206401 42 106 C42.33 106 42.66 106 43 106 C43.65743872 120.39487358 43.77353406 131.94710343 34.5625 143.8125 C27.35465655 151.33551531 17.20762133 155.72899804 6.85571289 156.07080078 C4.5901334 156.09774572 2.32806982 156.08773771 0.0625 156.0625 C-0.71673828 156.05798828 -1.49597656 156.05347656 -2.29882812 156.04882812 C-4.19925268 156.03716908 -6.09963706 156.01923877 -8 156 C0.75000401 157.61420279 9.2178797 157.15175348 18 156 C18 156.66 18 157.32 18 158 C12.33124794 159.93287638 7.33936952 160.27603361 1.375 160.1875 C0.54226562 160.18685547 -0.29046875 160.18621094 -1.1484375 160.18554688 C-5.22194273 160.15635775 -9.02750008 160.01339284 -13 159 C1.58354221 162.94530611 13.99552596 159.82762925 28 155 C25.65276062 157.68475092 23.43528366 158.84717014 20.125 160.125 C18.86042969 160.62386719 18.86042969 160.62386719 17.5703125 161.1328125 C5.73136917 165.12710645 -8.78077595 164.32193961 -20 159 C-22.1729706 157.78181951 -24.0285538 156.53334704 -26 155 C-25.01 154.67 -24.02 154.34 -23 154 C-24.27007214 153.0406581 -25.54108919 152.08256706 -26.8125 151.125 C-27.52019531 150.59132812 -28.22789062 150.05765625 -28.95703125 149.5078125 C-30.60456297 148.29185219 -32.29624211 147.13583859 -34 146 C-32.02 148.475 -32.02 148.475 -30 151 C-37.21883262 148.02564803 -41.65415507 140.22325638 -44.875 133.4375 C-51.06007868 118.48502022 -50.66062196 102.09499189 -45 87 C-40.13948913 75.57694272 -33.06586901 65.09289957 -26.66210938 54.50439453 C-16.10244284 36.96232061 -7.56277055 19.02241696 0 0 Z " fill="#4DA597" transform="translate(203,79)"/>
<path d="M0 0 C12.375 -0.061875 12.375 -0.061875 25 -0.125 C27.58972656 -0.14320801 30.17945313 -0.16141602 32.84765625 -0.18017578 C34.91926873 -0.18602155 36.99088352 -0.19111691 39.0625 -0.1953125 C40.12275391 -0.20554443 41.18300781 -0.21577637 42.27539062 -0.22631836 C52.38138451 -0.22867957 60.09813265 1.35560074 68 8 C72.84808722 13.5575634 72.59037248 19.17440786 72.390625 26.38671875 C71.76863565 32.14012025 70.16799891 35.95953043 65.875 40 C64 41 64 41 62 41 C62 41.66 62 42.32 62 43 C62.721875 43.226875 63.44375 43.45375 64.1875 43.6875 C69.44981445 46.14324674 72.20521018 49.7322442 74.38037109 55.04907227 C75.40982766 58.29035965 75.53244787 61.50772263 75.5 64.875 C75.49355469 65.57608887 75.48710937 66.27717773 75.48046875 66.99951172 C75.2277376 74.18405984 73.29280508 78.69974514 68.2734375 83.73046875 C59.63446027 90.92961644 49.69459333 92.60458589 38.76953125 92.390625 C37.77804077 92.38659668 36.78655029 92.38256836 35.76501465 92.37841797 C32.11398413 92.35772511 28.46322051 92.30188259 24.8125 92.25 C16.624375 92.1675 8.43625 92.085 0 92 C0 61.64 0 31.28 0 0 Z " fill="#FBFBFC" transform="translate(71,141)"/>
<path d="M0 0 C55.3304721 0 55.3304721 0 65.97265625 9.8203125 C75.07367307 19.6749167 77.36455935 30.3829541 77.25 43.5 C77.26160156 44.82837891 77.26160156 44.82837891 77.2734375 46.18359375 C77.23645384 58.77652894 74.13145929 70.75741267 65.25390625 80.02734375 C48.13379849 95.0111469 19.56186588 90 0 90 C0 60.3 0 30.6 0 0 Z " fill="#F7F8F9" transform="translate(254,262)"/>
<path d="M0 0 C0.66 0.33 1.32 0.66 2 1 C-7.35157219 16.11365202 -17.59407879 30.23152752 -30 43 C-30.5170752 43.53753906 -31.03415039 44.07507813 -31.56689453 44.62890625 C-51.4749293 65.26097835 -51.4749293 65.26097835 -63.09765625 68.953125 C-65.9993652 69.99977103 -68.78319648 71.22636597 -71.58764648 72.50830078 C-107.37753925 88.83140825 -144.97569759 83.72971128 -181.5 73 C-182.31283447 72.7630542 -183.12566895 72.5261084 -183.96313477 72.28198242 C-188.82213142 70.81347015 -193.40775751 69.03798976 -198.01123047 66.89770508 C-199.84421047 66.0703214 -201.73406496 65.37214889 -203.625 64.6875 C-214.82603035 60.55849273 -225.5122172 54.81016009 -236.12207031 49.37670898 C-239.58488391 47.62005395 -242.81153114 46.0590661 -246.52734375 44.89453125 C-247.75130859 44.45173828 -247.75130859 44.45173828 -249 44 C-249.33 43.01 -249.66 42.02 -250 41 C-251.96509558 40.47597451 -253.93388394 39.96031282 -255.921875 39.53125 C-258.66051494 38.83114656 -260.74605019 37.69046236 -263 36 C-263 35.34 -263 34.68 -263 34 C-263.639375 33.773125 -264.27875 33.54625 -264.9375 33.3125 C-269.13320261 31.51434174 -273.03900556 29.26095979 -277 27 C-277.33 27.99 -277.66 28.98 -278 30 C-280.31 27.69 -282.62 25.38 -285 23 C-284.34 22.67 -283.68 22.34 -283 22 C-280.36019862 23.13909238 -277.81733699 24.33923332 -275.25 25.625 C-268.64112539 28.842285 -262.0916809 31.5495164 -255.12890625 33.91796875 C-252.36629753 34.87332782 -249.69265376 35.92852061 -247 37.0625 C-241.49452913 39.28244793 -235.88259368 40.93881232 -230.140625 42.43505859 C-228.63728996 42.83181011 -227.13752379 43.24221445 -225.640625 43.66259766 C-210.29984018 47.93550647 -195.87595711 48.61822263 -180 48 C-180 48.33 -180 48.66 -180 49 C-188.415 49.495 -188.415 49.495 -197 50 C-164.91830162 54.62438896 -131.43410997 52.85150468 -100 45 C-99.27619141 44.82243164 -98.55238281 44.64486328 -97.80664062 44.46191406 C-63.99447963 36.03141525 -27.69267712 21.6240048 0 0 Z " fill="#10687A" transform="translate(465,375)"/>
<path d="M0 0 C22 0 22 0 26.75390625 3.890625 C28.25024414 6.44946289 28.25024414 6.44946289 29.5625 9.25 C30.65533541 11.19192123 31.74910808 13.13331526 32.84375 15.07421875 C33.62492187 16.56187744 33.62492187 16.56187744 34.421875 18.07958984 C36.86479225 22.60034729 39.71025668 26.78753055 42.5625 31.0625 C44.686875 34.341875 46.81125 37.62125 49 41 C53.29 47.6 57.58 54.2 62 61 C62.33 40.87 62.66 20.74 63 0 C69.6 0 76.2 0 83 0 C83 30.36 83 60.72 83 92 C62 92 62 92 57.4375 87.6875 C56.58427032 86.10669442 55.73615229 84.52158099 54.96240234 82.90039062 C53.450723 79.91537998 51.6111486 77.15345687 49.80004883 74.34326172 C48.22988115 71.90627443 46.69128484 69.45142766 45.15625 66.9921875 C40.27050397 59.21803206 35.12050775 51.6204415 30 44 C27.36 40.04 24.72 36.08 22 32 C21.67 51.8 21.34 71.6 21 92 C14.07 92 7.14 92 0 92 C0 61.64 0 31.28 0 0 Z " fill="#FAFBFB" transform="translate(265,141)"/>
<path d="M0 0 C8.25 0 16.5 0 25 0 C26.68878829 4.20781886 28.37651785 8.41605647 30.0625 12.625 C30.32543854 13.28137451 30.58837708 13.93774902 30.85928345 14.61401367 C35.83525538 27.04134823 40.75012962 39.49236108 45.65118408 51.94940186 C49.86269465 62.65053452 54.117185 73.32905768 58.56323242 83.93554688 C61 89.7928739 61 89.7928739 61 92 C53.74 92 46.48 92 39 92 C36.69 86.06 34.38 80.12 32 74 C12.695 73.505 12.695 73.505 -7 73 C-7.99 76.3 -8.98 79.6 -10 83 C-10.99 85.97 -11.98 88.94 -13 92 C-20.26 92 -27.52 92 -35 92 C-33.19698984 85.98996614 -31.47671411 80.37264164 -29.20703125 74.58984375 C-28.9437352 73.91563385 -28.68043915 73.24142395 -28.40916443 72.54678345 C-27.54726789 70.34223628 -26.67990994 68.13988296 -25.8125 65.9375 C-25.20176256 64.37832493 -24.59141967 62.81899525 -23.98144531 61.25952148 C-22.68105029 57.93628278 -21.37856795 54.61387251 -20.07470703 51.29199219 C-17.90549226 45.7627225 -15.74684371 40.22935674 -13.58984375 34.6953125 C-13.22651443 33.76326492 -12.86318512 32.83121735 -12.48884583 31.8709259 C-11.76504264 30.01414476 -11.04125201 28.15735872 -10.31747437 26.30056763 C-8.61372039 21.93044525 -6.90881454 17.56077349 -5.203125 13.19140625 C-4.90788437 12.43461578 -4.61264374 11.67782532 -4.30845642 10.89810181 C-4.03296463 10.19253143 -3.75747284 9.48696106 -3.47363281 8.76000977 C-3.11727753 7.84699852 -3.11727753 7.84699852 -2.75372314 6.9155426 C-1.84522111 4.60663865 -0.92149903 2.30374758 0 0 Z " fill="#FAFAFB" transform="translate(394,141)"/>
<path d="M0 0 C21.78 0 43.56 0 66 0 C66 5.28 66 10.56 66 16 C50.16 16 34.32 16 18 16 C18 22.27 18 28.54 18 35 C32.52 35 47.04 35 62 35 C62 39.95 62 44.9 62 50 C47.48 50 32.96 50 18 50 C18 57.59 18 65.18 18 73 C34.83 73 51.66 73 69 73 C69 78.61 69 84.22 69 90 C46.23 90 23.46 90 0 90 C0 60.3 0 30.6 0 0 Z " fill="#F9F9FA" transform="translate(346,262)"/>
<path d="M0 0 C21.12 0 42.24 0 64 0 C64 5.28 64 10.56 64 16 C49.15 16 34.3 16 19 16 C19 22.6 19 29.2 19 36 C32.2 36 45.4 36 59 36 C59 41.28 59 46.56 59 52 C45.8 52 32.6 52 19 52 C19 64.54 19 77.08 19 90 C12.73 90 6.46 90 0 90 C0 60.3 0 30.6 0 0 Z " fill="#F5F6F7" transform="translate(139,262)"/>
<path d="M0 0 C26.13417722 0 26.13417722 0 31.98828125 4.54296875 C32.42527344 5.08566406 32.86226563 5.62835938 33.3125 6.1875 C33.98732422 6.98220703 33.98732422 6.98220703 34.67578125 7.79296875 C38.48458949 14.14098248 39.50206425 20.04442684 39.375 27.375 C39.36629883 28.20990967 39.35759766 29.04481934 39.34863281 29.9050293 C39.14713068 38.37885449 37.87409254 46.50758193 32 53 C23 57 23 57 0 57 C0 38.19 0 19.38 0 0 Z " fill="#152E4F" transform="translate(273,278)"/>
<path d="M0 0 C3.75000379 3.53213385 6.73370341 7.20376295 9.5 11.5625 C9.88800781 12.1716626 10.27601563 12.7808252 10.67578125 13.40844727 C18.85542656 26.57897566 21.55926192 38.75561406 18 54 C14.73664498 63.20806544 9.7299408 70.67787892 1 75.3125 C-8.65189645 79.90963172 -19.90294962 80.56606849 -30.25 78 C-41.45798174 74.00913795 -49.66474915 65.37508583 -55.25 55.125 C-59.96048827 44.77004733 -60.37813924 35.16211025 -60 24 C-59.34 24.33 -58.68 24.66 -58 25 C-57.55485122 27.08877503 -57.11194887 29.17805123 -56.6796875 31.26953125 C-53.88790121 42.48481066 -48.75207957 52.35607339 -38.75 58.5 C-31.92542921 62.31497746 -25.52995199 62.98925796 -17.81640625 61.609375 C-10.50090447 59.31316116 -4.22285601 53.58090162 -0.4375 47 C0.036875 46.01 0.51125 45.02 1 44 C1.99 44.495 1.99 44.495 3 45 C6.04173894 45.16670273 6.04173894 45.16670273 9 45 C10.29633621 43.93354885 10.29633621 43.93354885 10.0625 41.4375 C10.041875 40.633125 10.02125 39.82875 10 39 C7.69 38.34 5.38 37.68 3 37 C3.02356567 36.06486572 3.02356567 36.06486572 3.04760742 35.11083984 C3.31196013 23.00415521 3.41269562 11.72098437 0 0 Z " fill="#16828F" transform="translate(226,147)"/>
<path d="M0 0 C6.27 0 12.54 0 19 0 C19 29.7 19 59.4 19 90 C12.73 90 6.46 90 0 90 C0 60.3 0 30.6 0 0 Z " fill="#F7F7F8" transform="translate(216,262)"/>
<path d="M0 0 C0.99 0.495 0.99 0.495 2 1 C-22.53549443 24.75782424 -50.53209125 43.09028924 -83 54 C-83.74483643 54.2570874 -84.48967285 54.5141748 -85.25708008 54.77905273 C-101.4154359 60.29954918 -117.14731244 61.41582731 -134.125 61.5 C-135.01202606 61.51026215 -135.89905212 61.52052429 -136.81295776 61.53109741 C-155.19232245 61.70005774 -171.77219571 58.28338452 -189 52 C-189 51.67 -189 51.34 -189 51 C-188.40183472 51.00666183 -187.80366943 51.01332367 -187.18737793 51.02018738 C-180.82549556 51.08780213 -174.46371882 51.13230842 -168.1015625 51.16479492 C-165.74344727 51.17966102 -163.38535852 51.19995979 -161.02734375 51.22631836 C-144.76570671 51.4032261 -129.07392813 50.48923424 -113 48 C-111.96456055 47.84090149 -110.92912109 47.68180298 -109.86230469 47.5178833 C-97.24646335 45.55935407 -85.10446593 43.07626355 -73 39 C-72.18273437 38.7323584 -71.36546875 38.4647168 -70.5234375 38.18896484 C-45.09833538 29.78824547 -20.35958289 17.62520525 0 0 Z " fill="#78CAEF" transform="translate(459,341)"/>
<path d="M0 0 C2.90187605 3.44379267 4.53359224 7.26102351 6.25 11.375 C12.16975835 25.22550635 12.16975835 25.22550635 19.796875 38.17578125 C23.41928754 43.52116543 26.54812734 49.11149754 29.6875 54.75 C30.81585828 56.76593181 31.94474607 58.78156735 33.07421875 60.796875 C33.56494873 61.67698242 34.05567871 62.55708984 34.5612793 63.46386719 C35.55492917 65.21544276 36.57772783 66.95068807 37.62353516 68.67163086 C39.013456 71.02276159 39.87243965 73.21206936 40.6875 75.8125 C40.93886719 76.60269531 41.19023437 77.39289063 41.44921875 78.20703125 C41.63097656 78.79871094 41.81273437 79.39039063 42 80 C42.66 80 43.32 80 44 80 C51.60900822 93.90611846 53.21874007 109.26214931 50.2734375 124.84375 C48.4649281 130.66626807 45.8509637 135.29326659 42 140 C42 136.80389448 42.54671542 135.58282374 44 132.8125 C44.37125 132.09707031 44.7425 131.38164062 45.125 130.64453125 C45.41375 130.10183594 45.7025 129.55914062 46 129 C45.67 128.67 45.34 128.34 45 128 C44.66226563 128.5053125 44.32453125 129.010625 43.9765625 129.53125 C43.30753906 130.50578125 43.30753906 130.50578125 42.625 131.5 C42.18414062 132.1496875 41.74328125 132.799375 41.2890625 133.46875 C40.86367187 133.9740625 40.43828125 134.479375 40 135 C39.34 135 38.68 135 38 135 C38.21076172 134.42096924 38.42152344 133.84193848 38.63867188 133.24536133 C43.02660016 120.15771995 43.72363297 102.64368431 37.67578125 89.96875 C37.12277344 88.9890625 36.56976563 88.009375 36 87 C35.67821777 86.40574219 35.35643555 85.81148438 35.02490234 85.19921875 C31.36930353 78.48617895 27.42896596 72.31044569 22.4375 66.5 C14.92049154 57.68197085 9.8247908 46.88739956 6 36 C5.67902344 35.16855469 5.35804688 34.33710937 5.02734375 33.48046875 C3.51532234 28.35799317 2.76746264 23.145105 1.9375 17.875 C1.59386691 15.72633508 1.24887047 13.57788764 0.90234375 11.4296875 C0.75273193 10.48335449 0.60312012 9.53702148 0.44897461 8.56201172 C0.05054499 6.04005748 0.05054499 6.04005748 -0.61889648 3.78564453 C-1 2 -1 2 0 0 Z " fill="#156055" transform="translate(204,81)"/>
<path d="M0 0 C0.33 0 0.66 0 1 0 C1.02578125 1.22074219 1.0515625 2.44148437 1.078125 3.69921875 C1.58136721 20.16865893 4.51388232 36.16656574 17 48 C27.25357201 56.38032327 37.95373813 58.18231748 51 57 C60.92320322 55.1393994 68.06265812 50.69009407 73.81640625 42.375 C78.39352241 34.25751206 79.32857831 26.12207397 80 17 C80.33 17 80.66 17 81 17 C81.65743872 31.39487358 81.77353406 42.94710343 72.5625 54.8125 C64.74378831 62.97309452 54.461891 66.50308368 43.421875 67.23828125 C29.42426805 67.5212116 18.54629559 63.46591483 7.9296875 54.19140625 C-0.85823978 45.0420707 -3.18528597 33.55741628 -3.25 21.375 C-3.2809375 19.95380859 -3.2809375 19.95380859 -3.3125 18.50390625 C-3.34890171 11.85149329 -2.2640959 6.25102193 0 0 Z " fill="#F6F9F9" transform="translate(165,168)"/>
<path d="M0 0 C4.00262009 -0.09230898 8.00249678 -0.17179076 12.00561523 -0.21972656 C13.36446713 -0.23972628 14.72323424 -0.26693576 16.08178711 -0.30175781 C30.09847666 -0.65178899 30.09847666 -0.65178899 36 4 C38.40964187 6.93347706 38.41801672 10.22807433 38.3203125 13.96875 C37.78643864 17.35429158 36.19273902 19.44180448 34 22 C30.45267397 24.39500347 27.24707969 24.23090746 23.046875 24.1953125 C22.38665344 24.1924826 21.72643188 24.18965271 21.04620361 24.18673706 C18.94728103 24.17558415 16.84879258 24.15048946 14.75 24.125 C13.32292285 24.11496384 11.89583898 24.1058391 10.46875 24.09765625 C6.97886677 24.07736623 3.48991662 24.03821077 0 24 C0 16.08 0 8.16 0 0 Z " fill="#162F50" transform="translate(89,192)"/>
<path d="M0 0 C0.99 0.495 0.99 0.495 2 1 C1 4 1 4 -1.90234375 5.69140625 C-3.24090231 6.32892109 -4.58669054 6.95137153 -5.9375 7.5625 C-6.67605225 7.9025708 -7.41460449 8.2426416 -8.17553711 8.59301758 C-24.24462572 15.83737222 -40.96515475 22.40136296 -58 27 C-58.77553223 27.20963379 -59.55106445 27.41926758 -60.35009766 27.63525391 C-73.76471929 31.18763962 -87.21170368 33.48398186 -101 35 C-101.83426514 35.09643799 -102.66853027 35.19287598 -103.52807617 35.29223633 C-111.69526405 36.14804971 -119.8596572 36.19691279 -128.0625 36.1875 C-129.15226135 36.18808914 -129.15226135 36.18808914 -130.26403809 36.18869019 C-142.99880984 36.18044546 -155.50551819 35.64673183 -168 33 C-168 32.67 -168 32.34 -168 32 C-167.44687637 31.98160568 -166.89375275 31.96321136 -166.3238678 31.94425964 C-78.37115406 32.83369751 -78.37115406 32.83369751 0 0 Z " fill="#EEF3F5" transform="translate(431,392)"/>
<path d="M0 0 C4.56285508 -0.08089106 9.12427754 -0.14045647 13.6875 -0.1875 C14.98107422 -0.21263672 16.27464844 -0.23777344 17.60742188 -0.26367188 C18.85458984 -0.27333984 20.10175781 -0.28300781 21.38671875 -0.29296875 C22.53358154 -0.3086792 23.68044434 -0.32438965 24.86206055 -0.34057617 C29.31895079 0.14315229 31.87595597 1.87595597 35 5 C35.57066304 8.05755249 35.5184318 10.9370203 35 14 C32.79032004 17.03041824 31.34742409 18.6379735 27.6965332 19.61889648 C24.77390313 20.03195448 21.99456073 20.11279262 19.04296875 20.09765625 C17.93115234 20.09443359 16.81933594 20.09121094 15.67382812 20.08789062 C14.52333984 20.07951172 13.37285156 20.07113281 12.1875 20.0625 C10.43276367 20.05573242 10.43276367 20.05573242 8.64257812 20.04882812 C5.76169677 20.03706943 2.88084181 20.01913474 0 20 C0 13.4 0 6.8 0 0 Z " fill="#162F50" transform="translate(89,157)"/>
<path d="M0 0 C3.10216017 2.55795074 3.95465176 5.20613199 5.15625 8.98828125 C5.73052734 10.76041992 5.73052734 10.76041992 6.31640625 12.56835938 C6.90228516 14.42170898 6.90228516 14.42170898 7.5 16.3125 C8.27702826 18.74744501 9.05814791 21.18108893 9.84375 23.61328125 C10.35711914 25.23423706 10.35711914 25.23423706 10.88085938 26.88793945 C12.02592015 30.07207768 13.48651902 32.97818042 15 36 C15 36.66 15 37.32 15 38 C5.76 38 -3.48 38 -13 38 C-11.73677018 32.3154658 -10.58236177 27.40482853 -8.65234375 22.03125 C-8.21212891 20.80148438 -7.77191406 19.57171875 -7.31835938 18.3046875 C-6.97840942 17.36834473 -6.97840942 17.36834473 -6.6315918 16.41308594 C-5.92958023 14.4781712 -5.23668686 12.54016138 -4.54492188 10.6015625 C-1.13899928 1.13899928 -1.13899928 1.13899928 0 0 Z " fill="#1D3454" transform="translate(406,161)"/>
<path d="M0 0 C1 3 1 3 -0.07421875 5.62890625 C-0.60660156 6.59699219 -1.13898438 7.56507813 -1.6875 8.5625 C-2.46673828 10.01849609 -2.46673828 10.01849609 -3.26171875 11.50390625 C-5.07189863 14.1032432 -6.10966704 14.87890115 -9 16 C-11.24755753 17.3516367 -11.24755753 17.3516367 -13 19 C-13 19.99 -13 20.98 -13 22 C-21.23769729 30.62887286 -34.3293594 33.88829915 -45.875 34.3125 C-52.05214832 34.18503503 -60.49491735 33.50508265 -65 29 C-63.741875 29.33 -62.48375 29.66 -61.1875 30 C-55.87640415 31.0728718 -50.70851326 31.1916648 -45.3125 31.1875 C-44.50514404 31.18814453 -43.69778809 31.18878906 -42.8659668 31.18945312 C-38.14937406 31.14683477 -33.65230122 30.77849753 -29 30 C-29 29.34 -29 28.68 -29 28 C-30.258125 28.33 -31.51625 28.66 -32.8125 29 C-41.14715762 30.83467306 -48.86225248 30.4566785 -57 28 C-53.24805228 26.78085326 -49.7293844 26.97066683 -45.8125 27.0625 C-34.39175208 27.15286918 -23.43903759 24.9217132 -14.71484375 16.8984375 C-12.49179137 14.38780339 -10.50245346 12.00490692 -9 9 C-8.4225 8.773125 -7.845 8.54625 -7.25 8.3125 C-3.85490441 6.33202757 -2.11829187 3.24689 0 0 Z " fill="#113042" transform="translate(250,207)"/>
<path d="M0 0 C14.85 0 29.7 0 45 0 C45 0.66 45 1.32 45 2 C30.81 2 16.62 2 2 2 C2 7.28 2 12.56 2 18 C14.21 18 26.42 18 39 18 C39 18.33 39 18.66 39 19 C26.13 19.33 13.26 19.66 0 20 C0 13.4 0 6.8 0 0 Z " fill="#0C2649" transform="translate(158,278)"/>
<path d="M0 0 C2.375 1.5625 2.375 1.5625 4 4 C4.42519574 7.46230815 4.63902633 9.8347167 2.9375 12.9375 C-0.1652833 14.63902633 -2.53769185 14.42519574 -6 14 C-8.4375 12.375 -8.4375 12.375 -10 10 C-10.61195145 6.3282913 -10.48706506 4.71186432 -8.375 1.625 C-5.28813568 -0.48706506 -3.6717087 -0.61195145 0 0 Z " fill="#4A94EC" transform="translate(384,426)"/>
<path d="M0 0 C9.24 0 18.48 0 28 0 C28.33 0.66 28.66 1.32 29 2 C20.09 2 11.18 2 2 2 C2 7.28 2 12.56 2 18 C9.92 18 17.84 18 26 18 C25.67 18.66 25.34 19.32 25 20 C16.75 20 8.5 20 0 20 C0 13.4 0 6.8 0 0 Z " fill="#2B3D5C" transform="translate(89,157)"/>
<path d="M0 0 C4.7856653 1.4218281 9.26265377 3.04883706 13.6875 5.375 C18.82060924 8.03335984 24.12091885 9.90944229 29.57421875 11.8046875 C32.67412686 12.8862974 35.74997114 14.00454894 38.8125 15.1875 C39.60269531 15.49042969 40.39289063 15.79335938 41.20703125 16.10546875 C43 17 43 17 44 19 C43.236875 18.835 42.47375 18.67 41.6875 18.5 C38.96403764 17.90854604 38.96403764 17.90854604 36 18 C35.67 18.66 35.34 19.32 35 20 C33.58280758 19.37619308 32.1662694 18.7508997 30.75 18.125 C29.96109375 17.77695312 29.1721875 17.42890625 28.359375 17.0703125 C26.21131392 16.09586095 24.10170798 15.07013571 22 14 C22 13.34 22 12.68 22 12 C21.360625 11.773125 20.72125 11.54625 20.0625 11.3125 C15.86679739 9.51434174 11.96099444 7.26095979 8 5 C7.67 5.99 7.34 6.98 7 8 C5.83035398 6.8572081 4.66435444 5.71068285 3.5 4.5625 C2.8503125 3.92441406 2.200625 3.28632813 1.53125 2.62890625 C0 1 0 1 0 0 Z " fill="#068C96" transform="translate(180,397)"/>
<path d="M0 0 C9.57 0 19.14 0 29 0 C29 0.66 29 1.32 29 2 C20.09 2 11.18 2 2 2 C2 8.93 2 15.86 2 23 C9.26 23 16.52 23 24 23 C24 23.33 24 23.66 24 24 C16.08 24 8.16 24 0 24 C0 16.08 0 8.16 0 0 Z " fill="#223655" transform="translate(89,192)"/>
<path d="M0 0 C1.875 1.125 1.875 1.125 3 3 C3.39365568 6.14924548 3.52854531 8.11909116 1.875 10.875 C-0.88090884 12.52854531 -2.85075452 12.39365568 -6 12 C-7.875 10.875 -7.875 10.875 -9 9 C-9.39365568 5.85075452 -9.52854531 3.88090884 -7.875 1.125 C-5.11909116 -0.52854531 -3.14924548 -0.39365568 0 0 Z " fill="#509AEC" transform="translate(476,237)"/>
<path d="M0 0 C2.15502531 3.23253796 2.46856135 4.25150923 2 8 C0.875 9.8125 0.875 9.8125 -1 11 C-4.14924548 11.39365568 -6.11909116 11.52854531 -8.875 9.875 C-10.52854531 7.11909116 -10.39365568 5.14924548 -10 2 C-7.65569181 -2.27491494 -4.20074737 -1.06928115 0 0 Z " fill="#8DC9F3" transform="translate(416,423)"/>
<path d="M0 0 C1 3 1 3 -0.07421875 5.62890625 C-0.60660156 6.59699219 -1.13898438 7.56507813 -1.6875 8.5625 C-2.46673828 10.01849609 -2.46673828 10.01849609 -3.26171875 11.50390625 C-5.07189863 14.1032432 -6.10966704 14.87890115 -9 16 C-11.24755753 17.3516367 -11.24755753 17.3516367 -13 19 C-13 19.99 -13 20.98 -13 22 C-16.61964725 25.6106655 -20.77559896 28.67347493 -26 29 C-25.401875 28.566875 -24.80375 28.13375 -24.1875 27.6875 C-22.29216913 26.22538761 -20.6471407 24.72949773 -19 23 C-19.99 22.67 -20.98 22.34 -22 22 C-21.48050781 21.64808594 -20.96101562 21.29617187 -20.42578125 20.93359375 C-16.7698613 18.34539164 -13.75660256 15.99811731 -11.25 12.25 C-8.97239039 8.96011946 -8.30783066 8.65391533 -5 7 C-3.17700168 4.7683986 -1.57369302 2.41213602 0 0 Z " fill="#0D283C" transform="translate(250,207)"/>
<path d="M0 0 C1.8125 1.0625 1.8125 1.0625 3 3 C3.3125 6.5625 3.3125 6.5625 3 10 C1 12 1 12 -2.5 12.25 C-6 12 -6 12 -8 10 C-8.55416667 3.90416667 -8.55416667 3.90416667 -6.8125 1.0625 C-4.33950907 -0.38718434 -2.82115488 -0.42317323 0 0 Z " fill="#559DF0" transform="translate(365,432)"/>
<path d="M0 0 C0.66 0.33 1.32 0.66 2 1 C1 4 1 4 -2.11328125 5.76171875 C-3.50727143 6.41603721 -4.90755995 7.05703609 -6.3125 7.6875 C-7.05636963 8.02910156 -7.80023926 8.37070312 -8.56665039 8.72265625 C-33.46478227 20 -33.46478227 20 -38 20 C-38 19.34 -38 18.68 -38 18 C-38.66 17.67 -39.32 17.34 -40 17 C-38.94425781 16.68289063 -37.88851563 16.36578125 -36.80078125 16.0390625 C-17.026304 10.4899141 -17.026304 10.4899141 0 0 Z " fill="#E3E5E9" transform="translate(431,392)"/>
<path d="M0 0 C0.99 0.495 0.99 0.495 2 1 C2.44514878 3.08877503 2.88805113 5.17805123 3.3203125 7.26953125 C5.40631497 15.64950668 8.99857359 22.67221996 14.546875 29.2578125 C16 31 16 31 17 33 C13.66227007 31.59844241 11.98250943 30.0490314 9.875 27.125 C9.37742188 26.44695312 8.87984375 25.76890625 8.3671875 25.0703125 C7 23 7 23 5.9453125 20.8046875 C5.13077468 18.82172002 5.13077468 18.82172002 3 18 C3.33 20.31 3.66 22.62 4 25 C-0.47903496 19.74200243 -0.13978726 14.34014981 -0.0625 7.6875 C-0.05798828 6.94693359 -0.05347656 6.20636719 -0.04882812 5.44335938 C-0.03712175 3.62887101 -0.01918898 1.81442466 0 0 Z " fill="#0F5F64" transform="translate(166,171)"/>
<path d="M0 0 C0.66 0.33 1.32 0.66 2 1 C-7.57 10.57 -17.14 20.14 -27 30 C-27.66 29.67 -28.32 29.34 -29 29 C-23.46895882 22.60857464 -17.65421709 16.54546042 -11.6875 10.5625 C-10.99398437 9.86447266 -10.30046875 9.16644531 -9.5859375 8.44726562 C-8.59013672 7.45436523 -8.59013672 7.45436523 -7.57421875 6.44140625 C-6.98213623 5.85045166 -6.39005371 5.25949707 -5.7800293 4.65063477 C-3.94476282 2.94877814 -2.02685187 1.46589548 0 0 Z " fill="#1198A3" transform="translate(101,73)"/>
<path d="M0 0 C5.56818182 0.56818182 5.56818182 0.56818182 7 2 C7.1875 4.4375 7.1875 4.4375 7 7 C5 9 5 9 2 9.3125 C1.01 9.209375 0.02 9.10625 -1 9 C-3 6 -3 6 -2.75 3.9375 C-2 2 -2 2 0 0 Z " fill="#EFF6F7" transform="translate(230,184)"/>
<path d="M0 0 C0.928125 0.20625 1.85625 0.4125 2.8125 0.625 C2.85491723 2.95794775 2.85342937 5.29202567 2.8125 7.625 C1.8125 8.625 1.8125 8.625 -1.125 8.8125 C-4.1875 8.625 -4.1875 8.625 -6.1875 6.625 C-6.5 4.125 -6.5 4.125 -6.1875 1.625 C-3.1875 -0.375 -3.1875 -0.375 0 0 Z " fill="#8FCCF5" transform="translate(481.1875,312.375)"/>
<path d="M0 0 C2.5625 0.1875 2.5625 0.1875 4.5625 2.1875 C4.75 4.75 4.75 4.75 4.5625 7.1875 C3.5625 8.1875 3.5625 8.1875 0.625 8.375 C-2.4375 8.1875 -2.4375 8.1875 -4.4375 6.1875 C-3.71780303 0.28598485 -3.71780303 0.28598485 0 0 Z " fill="#89C5F3" transform="translate(344.4375,428.8125)"/>
<path d="M0 0 C0 0.99 0 1.98 0 3 C-0.66 3 -1.32 3 -2 3 C-2 4.32 -2 5.64 -2 7 C-2.66 7 -3.32 7 -4 7 C-4.33 7.99 -4.66 8.98 -5 10 C-6.9375 9.625 -6.9375 9.625 -9 9 C-10 7 -10 7 -9.3125 4.5 C-7.02659554 0.14589626 -4.77536855 0 0 0 Z " fill="#A8DDF4" transform="translate(387,429)"/>
<path d="M0 0 C-0.33 2.31 -0.66 4.62 -1 7 C-1.66 7 -2.32 7 -3 7 C-3 7.66 -3 8.32 -3 9 C-4.65 8.67 -6.3 8.34 -8 8 C-8.3125 5.6875 -8.3125 5.6875 -8 3 C-5.13896577 0.75756777 -3.65923696 0 0 0 Z " fill="#9BD4F4" transform="translate(478,239)"/>
<path d="M0 0 C2.55227651 3.07150755 3.88776704 5.98525624 5.1875 9.75 C5.53167969 10.73484375 5.87585938 11.7196875 6.23046875 12.734375 C6.61138672 13.85585937 6.61138672 13.85585937 7 15 C6.34 15 5.68 15 5 15 C4.34 16.32 3.68 17.64 3 19 C2.30048937 16.586238 1.61516081 14.16989766 0.9375 11.75 C0.63875977 10.72712891 0.63875977 10.72712891 0.33398438 9.68359375 C-1.40009269 3.41657839 -1.40009269 3.41657839 0 0 Z " fill="#066A4A" transform="translate(204,81)"/>
<path d="M0 0 C13.86 0.495 13.86 0.495 28 1 C28 1.33 28 1.66 28 2 C24.27171115 2.22666276 20.54246959 2.42809699 16.8125 2.625 C15.22985352 2.72167969 15.22985352 2.72167969 13.61523438 2.8203125 C12.59365234 2.871875 11.57207031 2.9234375 10.51953125 2.9765625 C9.58214111 3.02893066 8.64475098 3.08129883 7.67895508 3.13525391 C4.73712195 2.98672793 2.65646126 2.23448557 0 1 C0 0.67 0 0.34 0 0 Z " fill="#85DEFE" transform="translate(270,392)"/>
<path d="M0 0 C5.26292658 0.30958392 9.30278511 1.79518485 14 4 C10.37673261 5.2077558 9.35853631 4.54311128 6 3 C5.67 3.99 5.34 4.98 5 6 C1.535 4.02 1.535 4.02 -2 2 C-1.34 1.34 -0.68 0.68 0 0 Z " fill="#069099" transform="translate(210,411)"/>
<path d="M0 0 C0 3 0 3 -2.3125 5.5 C-3.199375 6.325 -4.08625 7.15 -5 8 C-5.598125 8.598125 -6.19625 9.19625 -6.8125 9.8125 C-7.204375 10.204375 -7.59625 10.59625 -8 11 C-8.66 10.67 -9.32 10.34 -10 10 C-9.505 9.566875 -9.01 9.13375 -8.5 8.6875 C-6.66781808 7.00259517 -6.66781808 7.00259517 -7 4 C-4.68806023 1.92722641 -2.97064418 0.99021473 0 0 Z " fill="#708791" transform="translate(244,221)"/>
<path d="M0 0 C0 0.99 0 1.98 0 3 C-4.455 3.495 -4.455 3.495 -9 4 C-9.33 3.01 -9.66 2.02 -10 1 C-3.375 -1.125 -3.375 -1.125 0 0 Z " fill="#ADDFF5" transform="translate(367,436)"/>
<path d="M0 0 C2 2 2 2 2.3125 4.4375 C2 7 2 7 0.875 8.8125 C-1.77535957 10.49106106 -3.93246424 10.20450238 -7 10 C-5.68 9.67 -4.36 9.34 -3 9 C-3 8.01 -3 7.02 -3 6 C-2.34 6 -1.68 6 -1 6 C-0.67 4.02 -0.34 2.04 0 0 Z " fill="#4B94E8" transform="translate(416,424)"/>
<path d="M0 0 C0 0.33 0 0.66 0 1 C-2.31 1.66 -4.62 2.32 -7 3 C-7.33 4.98 -7.66 6.96 -8 9 C-8.66 8.67 -9.32 8.34 -10 8 C-10.35664336 2.65034965 -10.35664336 2.65034965 -8.9375 0.0625 C-5.87530347 -1.61676907 -3.30629059 -0.68621125 0 0 Z " fill="#5199F3" transform="translate(416,423)"/>
<path d="M0 0 C0.33 0.66 0.66 1.32 1 2 C0.03114628 3.68496298 -0.96986723 5.35178756 -2 7 C-2 7.66 -2 8.32 -2 9 C0.97 9.495 0.97 9.495 4 10 C4 10.33 4 10.66 4 11 C0.7 11 -2.6 11 -6 11 C-4.54955729 6.89041233 -2.48889248 3.56741255 0 0 Z " fill="#0F99A8" transform="translate(60,119)"/>
<path d="M0 0 C0.99 0.33 1.98 0.66 3 1 C0.03 3.64 -2.94 6.28 -6 9 C-6.66 8.67 -7.32 8.34 -8 8 C-7.34 7.34 -6.68 6.68 -6 6 C-6.33 5.34 -6.66 4.68 -7 4 C-6.030625 3.525625 -5.06125 3.05125 -4.0625 2.5625 C-1.19522563 1.29806053 -1.19522563 1.29806053 0 0 Z " fill="#104A5F" transform="translate(417,431)"/>
<path d="M0 0 C0.65355469 0.58007812 0.65355469 0.58007812 1.3203125 1.171875 C5.05744652 4.43984501 8.8076016 7.34140589 13 10 C11 11 11 11 8.75 10.5 C4.97030368 8.43834746 2.42844565 5.5383538 0 2 C0 1.34 0 0.68 0 0 Z " fill="#305F69" transform="translate(168,223)"/>
<path d="M0 0 C0.33 0 0.66 0 1 0 C1 3.63 1 7.26 1 11 C0.34 11 -0.32 11 -1 11 C-1.66 11.99 -2.32 12.98 -3 14 C-2.48594831 9.03083364 -1.76615118 4.70973649 0 0 Z " fill="#D6EAE7" transform="translate(165,168)"/>
<path d="M0 0 C5.04395895 3.51548654 8.37975847 8.11736877 12 13 C11.01 13.33 10.02 13.66 9 14 C8.443125 13.13375 7.88625 12.2675 7.3125 11.375 C5.75898708 9.02524211 4.09181652 6.88042025 2.25 4.75 C0 2 0 2 0 0 Z " fill="#142144" transform="translate(435,104)"/>
<path d="M0 0 C2.97 1.98 5.94 3.96 9 6 C6.27157939 7.36421031 4.39046682 6.87807211 1.375 6.5625 C0.37210937 6.46066406 -0.63078125 6.35882813 -1.6640625 6.25390625 C-2.43492187 6.17011719 -3.20578125 6.08632812 -4 6 C-4 5.67 -4 5.34 -4 5 C-2.02 5 -0.04 5 2 5 C1.34 3.35 0.68 1.7 0 0 Z " fill="#67B698" transform="translate(396,66)"/>
<path d="M0 0 C0.928125 0.20625 1.85625 0.4125 2.8125 0.625 C2.8125 0.955 2.8125 1.285 2.8125 1.625 C0.8325 1.625 -1.1475 1.625 -3.1875 1.625 C-3.5175 3.605 -3.8475 5.585 -4.1875 7.625 C-4.8475 7.295 -5.5075 6.965 -6.1875 6.625 C-6.375 4.25 -6.375 4.25 -6.1875 1.625 C-3.1875 -0.375 -3.1875 -0.375 0 0 Z " fill="#529BE9" transform="translate(481.1875,312.375)"/>
<path d="M0 0 C0.66 0.33 1.32 0.66 2 1 C1 4 1 4 -1.875 5.75 C-5 7 -5 7 -8 6 C-5.63404067 3.38499232 -3.13950774 1.61000397 0 0 Z " fill="#E8EEF0" transform="translate(431,392)"/>
<path d="M0 0 C2.01822917 0.06510417 4.03645833 0.13020833 6.0546875 0.1953125 C3.0546875 2.1953125 3.0546875 2.1953125 0.9921875 3.0703125 C-1.36562924 4.43936738 -1.94886961 5.70420527 -2.9453125 8.1953125 C-3.5703125 5.3203125 -3.5703125 5.3203125 -3.9453125 2.1953125 C-1.9453125 0.1953125 -1.9453125 0.1953125 0 0 Z " fill="#6DB2EE" transform="translate(379.9453125,427.8046875)"/>
<path d="M0 0 C1.2065625 0.0309375 1.2065625 0.0309375 2.4375 0.0625 C2.1075 0.7225 1.7775 1.3825 1.4375 2.0625 C0.4475 2.0625 -0.5425 2.0625 -1.5625 2.0625 C-1.8925 3.7125 -2.2225 5.3625 -2.5625 7.0625 C-3.2225 6.7325 -3.8825 6.4025 -4.5625 6.0625 C-3.48963568 0.08511307 -3.48963568 0.08511307 0 0 Z " fill="#5CA2F1" transform="translate(344.5625,428.9375)"/>
<path d="M0 0 C-0.7115625 0.680625 -0.7115625 0.680625 -1.4375 1.375 C-3.09027808 2.93258204 -3.09027808 2.93258204 -4 5 C-6.5 3.625 -6.5 3.625 -9 2 C-9 1.34 -9 0.68 -9 0 C-5.67465243 -1.10844919 -3.37817425 -0.84454356 0 0 Z " fill="#097A88" transform="translate(213,410)"/>
<path d="M0 0 C1.32 0 2.64 0 4 0 C4 0.99 4 1.98 4 3 C3.34 3 2.68 3 2 3 C2 4.32 2 5.64 2 7 C1.34 7 0.68 7 0 7 C-0.33 7.66 -0.66 8.32 -1 9 C-1 8.01 -1 7.02 -1 6 C-0.34 6 0.32 6 1 6 C0.34 4.35 -0.32 2.7 -1 1 C-0.67 0.67 -0.34 0.34 0 0 Z " fill="#91CAF3" transform="translate(383,429)"/>
<path d="M0 0 C2.0625 0.4375 2.0625 0.4375 4 1 C4 1.66 4 2.32 4 3 C3.01 3.495 3.01 3.495 2 4 C2 4.66 2 5.32 2 6 C1.01 6 0.02 6 -1 6 C-1.042721 4.33388095 -1.04063832 2.66617115 -1 1 C-0.67 0.67 -0.34 0.34 0 0 Z " fill="#AFE2F4" transform="translate(410,426)"/>
<path d="M0 0 C0.33 0.66 0.66 1.32 1 2 C-3.455 2.495 -3.455 2.495 -8 3 C-5.45189726 -0.82215411 -4.39145359 -1.46381786 0 0 Z " fill="#D9DCE2" transform="translate(267,123)"/>
<path d="M0 0 C1.5625 1.5625 1.5625 1.5625 3 4 C2.6875 7.75 2.6875 7.75 2 11 C1.67 11 1.34 11 1 11 C0.63743142 9.5437328 0.28520207 8.08488815 -0.0625 6.625 C-0.35833984 5.40683594 -0.35833984 5.40683594 -0.66015625 4.1640625 C-1 2 -1 2 0 0 Z " fill="#157859" transform="translate(204,81)"/>
<path d="M0 0 C0.33 0.66 0.66 1.32 1 2 C2.98 1.67 4.96 1.34 7 1 C6.01 2.485 6.01 2.485 5 4 C1.875 4.1875 1.875 4.1875 -1 4 C-0.67 2.68 -0.34 1.36 0 0 Z " fill="#7FC1EF" transform="translate(360,438)"/>
<path d="M0 0 C2.64 0 5.28 0 8 0 C8 0.99 8 1.98 8 3 C2.25 2.25 2.25 2.25 0 0 Z " fill="#78C9E8" transform="translate(270,392)"/>
<path d="M0 0 C0.99 0.66 1.98 1.32 3 2 C2.67 2.99 2.34 3.98 2 5 C0.02 5.33 -1.96 5.66 -4 6 C-2.25 1.125 -2.25 1.125 0 0 Z " fill="#73C2E7" transform="translate(435,358)"/>
<path d="M0 0 C1.98 0 3.96 0 6 0 C6 0.66 6 1.32 6 2 C6.66 2 7.32 2 8 2 C8 2.66 8 3.32 8 4 C4.31245243 3.50168276 2.39509338 2.89932357 0 0 Z " fill="#268098" transform="translate(339,425)"/>
<path d="M0 0 C0 3.52032428 -0.70351351 4.4385343 -3 7 C-3.66 7 -4.32 7 -5 7 C-3.75023244 3.34683329 -3.32901247 2.21934164 0 0 Z " fill="#0F4247" transform="translate(247,209)"/>
</svg>
